<?xml version='1.0' encoding='utf-8'?>
<!DOCTYPE svg PUBLIC '-//W3C//DTD SVG 1.1//EN' 'http://www.w3.org/Graphics/SVG/1.1/DTD/svg11.dtd'>
<svg version="1.1" xmlns="http://www.w3.org/2000/svg" viewBox="0 0 512 512" xmlns:xlink="http://www.w3.org/1999/xlink" enable-background="new 0 0 512 512">
  <g>
    <g>
      <path d="m204.3,151.6c0-28.5-23.4-51.6-52.2-51.6s-52.2,23.2-52.2,51.6c0,28.5 23.4,51.6 52.2,51.6s52.2-23.2 52.2-51.6zm-52.2,10.8c-6.3,0-11.4-4.8-11.4-10.8 0-6 5.1-10.8 11.4-10.8s11.4,4.8 11.4,10.8c0,5.9-5.1,10.8-11.4,10.8z"/>
      <path d="m444,11h-376c-31.5,0-57,25.6-57,57v376c0,31.5 25.6,57 57,57h376c31.5,0 57-25.6 57-57v-376c0-31.4-25.6-57-57-57zm16.2,433c0,8.9-7.3,16.2-16.2,16.2h-376c-8.9,0-16.2-7.3-16.2-16.2v-376c0-8.9 7.3-16.2 16.2-16.2h376c8.9,0 16.2,7.3 16.2,16.2v376z"/>
      <path d="m382.5,329.4l-.2-.1c-7.9-3.7-17.2-1.8-23.3,4.4-15.2,15.4-36.3,24.9-59.6,24.9-44-0.1-80.8-35-83.1-79-2.6-48.1 35.8-88 83.4-88 20.6,0 39.5,7.5 54.1,20 6.1,5.2 14.7,6.5 22,3.1l.2-.1c13.4-6.2 16-24.2 4.9-33.8-21.5-18.5-49.4-29.8-79.9-30.1-68.2-0.7-124.8,54.5-125.8,122.7-1,69.6 55.1,126.3 124.5,126.3 34.9,0 66.4-14.3 89-37.4 9.7-10.2 6.6-27-6.2-32.9z"/>
    </g>
  </g>
</svg>
